<svg width="40" height="22" viewBox="0 0 40 22" fill="none" xmlns="http://www.w3.org/2000/svg">
<path d="M39.3019 21.1218C39.3169 21.1188 39.3316 21.1147 39.3464 21.1109C39.359 21.1077 39.3717 21.105 39.3841 21.1012C39.3985 21.0968 39.4127 21.0914 39.4268 21.0863C39.4393 21.0818 39.4519 21.0777 39.4642 21.0725C39.4775 21.067 39.4904 21.0605 39.5033 21.0544C39.5159 21.0484 39.5288 21.0428 39.5412 21.0361C39.5535 21.0295 39.5652 21.022 39.5772 21.0148C39.5896 21.0074 39.6021 21.0005 39.6141 20.9924C39.627 20.9838 39.6389 20.9743 39.6513 20.9651C39.6617 20.9573 39.6723 20.95 39.6825 20.9417C39.7012 20.9263 39.719 20.9099 39.7364 20.893C39.7395 20.89 39.7429 20.8875 39.746 20.8843C39.7492 20.8811 39.752 20.8775 39.7551 20.8742C39.7718 20.857 39.788 20.8395 39.8032 20.821C39.8122 20.8101 39.8199 20.7988 39.8282 20.7875C39.8368 20.776 39.8458 20.7648 39.8538 20.7527C39.8624 20.7399 39.8699 20.7266 39.8777 20.7134C39.8843 20.7023 39.8914 20.6914 39.8975 20.68C39.9047 20.6667 39.9107 20.6529 39.9171 20.6394C39.9227 20.6273 39.9287 20.6154 39.9339 20.6031C39.9395 20.5898 39.9439 20.5762 39.9488 20.5627C39.9535 20.5495 39.9586 20.5364 39.9626 20.523C39.9668 20.5094 39.9698 20.4955 39.9733 20.4816C39.9766 20.468 39.9806 20.4545 39.9832 20.4408C39.9865 20.4245 39.9884 20.408 39.9907 20.3916C39.9924 20.3801 39.9946 20.3686 39.9957 20.3569C39.9986 20.3281 40.0001 20.2993 40.0001 20.2704V1.7288C40.0001 1.24961 39.6118 0.861328 39.1326 0.861328H11.8074C11.7998 0.861328 11.7924 0.862253 11.7847 0.862484C11.7682 0.862947 11.7518 0.863641 11.7353 0.865029C11.7223 0.86607 11.7093 0.867574 11.6964 0.869309C11.6815 0.871159 11.6669 0.873357 11.6522 0.876017C11.6384 0.878446 11.6248 0.881337 11.6112 0.88446C11.5975 0.887699 11.5837 0.891169 11.57 0.895102C11.5565 0.898918 11.5432 0.903082 11.53 0.907477C11.5165 0.912103 11.503 0.916962 11.4897 0.922282C11.4771 0.927256 11.4647 0.932344 11.4524 0.937896C11.4388 0.944026 11.4252 0.95062 11.4118 0.957444C11.4004 0.963343 11.3892 0.969357 11.3781 0.975718C11.3646 0.983352 11.3514 0.991448 11.3384 0.999776C11.3276 1.00672 11.3171 1.01389 11.3067 1.02117C11.2944 1.02985 11.2823 1.03887 11.2704 1.04835C11.2595 1.05703 11.2489 1.06593 11.2383 1.07507C11.2279 1.08421 11.2176 1.09335 11.2076 1.10306C11.1961 1.11405 11.1851 1.1255 11.1743 1.13707C11.1688 1.14285 11.163 1.14794 11.1578 1.15384C11.1547 1.15731 11.1523 1.16113 11.1493 1.1646C11.1384 1.1772 11.1282 1.19039 11.118 1.20369C11.1106 1.2134 11.103 1.22312 11.0961 1.23307C11.087 1.24602 11.0787 1.25932 11.0704 1.27274C11.0636 1.28373 11.0565 1.2946 11.0503 1.30582C11.043 1.31877 11.0366 1.33207 11.03 1.34538C11.024 1.35752 11.0178 1.36966 11.0123 1.38204C11.0067 1.39511 11.0017 1.40864 10.9967 1.42194C10.9917 1.43501 10.9866 1.44797 10.9824 1.46115C10.9781 1.47445 10.9746 1.48799 10.9709 1.50152C10.9672 1.5154 10.9633 1.52916 10.9602 1.54316C10.9573 1.55623 10.9553 1.56953 10.953 1.58271C10.9504 1.59775 10.9479 1.61279 10.9461 1.62782C10.9445 1.64031 10.9439 1.65304 10.9429 1.66576C10.9418 1.68195 10.9407 1.69815 10.9405 1.71445C10.9404 1.7192 10.9398 1.72382 10.9398 1.72857V7.07818C10.9398 7.55737 11.3281 7.94565 11.8073 7.94565C12.2865 7.94565 12.6747 7.55737 12.6747 7.07818V3.65515L20.3872 10.4835C20.347 10.5119 20.3082 10.5432 20.2721 10.5792L12.6746 18.1767V12.4759C12.6746 11.9967 12.2863 11.6084 11.8072 11.6084C11.328 11.6084 10.9397 11.9967 10.9397 12.4759V13.5358H6.45777C5.97858 13.5358 5.5903 13.9241 5.5903 14.4033C5.5903 14.8825 5.97858 15.2708 6.45777 15.2708H10.9397V20.271C10.9397 20.7502 11.328 21.1385 11.8072 21.1385H39.1324C39.161 21.1385 39.1895 21.137 39.218 21.1342C39.2313 21.1329 39.2441 21.1304 39.2572 21.1285C39.2722 21.1264 39.287 21.1247 39.3019 21.1218ZM38.2651 18.1768L30.6674 10.5793C30.6626 10.5744 30.6574 10.5704 30.6524 10.5658L36.3641 5.71984C36.7294 5.40987 36.7743 4.86255 36.4643 4.49718C36.1546 4.13203 35.6072 4.08692 35.2416 4.39701L25.4819 12.6773L14.0957 2.59638H38.2651V18.1768ZM21.4991 11.8062C21.561 11.7444 21.6112 11.6754 21.6504 11.6021L24.8948 14.4746C25.0588 14.6197 25.2643 14.6926 25.4699 14.6926C25.6695 14.6926 25.8691 14.624 26.0312 14.4866L29.3377 11.6813C29.3677 11.7253 29.4016 11.7673 29.4406 11.8062L37.0381 19.4038H13.9016L21.4991 11.8062Z" fill="white"/>
<path d="M0.867468 10.7408H15.5181C15.9973 10.7408 16.3855 10.3525 16.3855 9.8733C16.3855 9.39411 15.9973 9.00583 15.5181 9.00583H0.867468C0.388279 9.00583 0 9.39411 0 9.8733C0 10.3525 0.388279 10.7408 0.867468 10.7408Z" fill="white"/>
<path d="M2.38557 5.96034H8.96387C9.44306 5.96034 9.83133 5.57206 9.83133 5.09287C9.83133 4.61368 9.44306 4.2254 8.96387 4.2254H2.38557C1.90638 4.2254 1.5181 4.61368 1.5181 5.09287C1.5181 5.57206 1.90638 5.96034 2.38557 5.96034Z" fill="white"/>
<path d="M7.2289 17.1987H0.867468C0.388279 17.1987 0 17.5869 0 18.0661C0 18.5453 0.388279 18.9336 0.867468 18.9336H7.2289C7.70809 18.9336 8.09637 18.5453 8.09637 18.0661C8.09637 17.5869 7.70809 17.1987 7.2289 17.1987Z" fill="white"/>
</svg>
